<?xml version="1.0" encoding="UTF-8" standalone="no"?>
<svg
   xmlns:dc="http://purl.org/dc/elements/1.1/"
   xmlns:cc="http://creativecommons.org/ns#"
   xmlns:rdf="http://www.w3.org/1999/02/22-rdf-syntax-ns#"
   xmlns:svg="http://www.w3.org/2000/svg"
   xmlns="http://www.w3.org/2000/svg"
   xmlns:xlink="http://www.w3.org/1999/xlink"
   version="1.1"
   id="svg2"
   viewBox="0 0 646.66993 1122.5919"
   height="1122.5919"
   width="646.66992">
  <title
     id="title5106">Hotdawg remixed</title>
  <defs
     id="defs4">
    <linearGradient
       gradientUnits="userSpaceOnUse"
       y2="528.90021"
       x2="13.810516"
       y1="586.59991"
       x1="-351.56628"
       id="linearGradient4955"
       xlink:href="#linearGradient4897"
       gradientTransform="matrix(0.93128535,0,0,0.96579229,437.37421,-27.512106)" />
    <linearGradient
       id="linearGradient4897">
      <stop
         id="stop4927"
         offset="0"
         stop-color="#b57b57" />
      <stop
         id="stop4925"
         offset="0.071429"
         stop-color="#ba774b" />
      <stop
         id="stop4923"
         offset="0.142857"
         stop-color="#bd7645" />
      <stop
         id="stop4921"
         offset="0.214286"
         stop-color="#c17b47" />
      <stop
         id="stop4919"
         offset="0.285714"
         stop-color="#c67f49" />
      <stop
         id="stop4917"
         offset="0.357143"
         stop-color="#ca844d" />
      <stop
         id="stop4915"
         offset="0.428571"
         stop-color="#d08e53" />
      <stop
         id="stop4913"
         offset="0.5"
         stop-color="#d4995a" />
      <stop
         id="stop4911"
         offset="0.571429"
         stop-color="#d5a062" />
      <stop
         id="stop4909"
         offset="0.642857"
         stop-color="#d7a86d" />
      <stop
         id="stop4907"
         offset="0.714286"
         stop-color="#daaf76" />
      <stop
         id="stop4905"
         offset="0.785714"
         stop-color="#dbb37a" />
      <stop
         id="stop4903"
         offset="0.857143"
         stop-color="#ddbb82" />
      <stop
         id="stop4901"
         offset="0.928571"
         stop-color="#e1c694" />
      <stop
         id="stop4899"
         offset="1"
         stop-color="#e4cca4" />
    </linearGradient>
  </defs>
  <metadata
     id="metadata7">
    <rdf:RDF>
      <cc:Work
         rdf:about="">
        <dc:format>image/svg+xml</dc:format>
        <dc:type
           rdf:resource="http://purl.org/dc/dcmitype/StillImage" />
        <dc:title>Hotdawg remixed</dc:title>
        <cc:license
           rdf:resource="http://creativecommons.org/publicdomain/zero/1.0/" />
        <dc:creator>
          <cc:Agent>
            <dc:title>Arvin61r58</dc:title>
          </cc:Agent>
        </dc:creator>
        <dc:publisher>
          <cc:Agent>
            <dc:title>Openclipart.org</dc:title>
          </cc:Agent>
        </dc:publisher>
        <dc:identifier>https://openclipart.org/</dc:identifier>
        <dc:source>https://openclipart.org/user-detail/Arvin61r58</dc:source>
        <dc:contributor>
          <cc:Agent>
            <dc:title>tdlnx (https://openclipart.org/user-detail/tdlnx)
clip-art (https://openclipart.org/detail/216348/hotdawg)</dc:title>
          </cc:Agent>
        </dc:contributor>
        <dc:description>Iconic drive-in movie dancing hot dog</dc:description>
        <dc:subject>
          <rdf:Bag>
            <rdf:li>cartoon</rdf:li>
            <rdf:li>food</rdf:li>
            <rdf:li>HotDog</rdf:li>
            <rdf:li>movies</rdf:li>
            <rdf:li>hot dog</rdf:li>
            <rdf:li>bun</rdf:li>
            <rdf:li>dancing</rdf:li>
            <rdf:li></rdf:li>
          </rdf:Bag>
        </dc:subject>
      </cc:Work>
      <cc:License
         rdf:about="http://creativecommons.org/publicdomain/zero/1.0/">
        <cc:permits
           rdf:resource="http://creativecommons.org/ns#Reproduction" />
        <cc:permits
           rdf:resource="http://creativecommons.org/ns#Distribution" />
        <cc:permits
           rdf:resource="http://creativecommons.org/ns#DerivativeWorks" />
      </cc:License>
    </rdf:RDF>
  </metadata>
  <g
     transform="translate(-15.779083,24.679745)"
     id="layer1">
    <path
       id="path4363"
       d="m 514.42473,829.10167 c 29.00143,7.44395 55.9602,22.69317 77.28168,43.71435 21.32148,21.02117 36.95155,47.76094 44.8061,76.65387 7.91144,29.10217 7.91144,60.31421 0,89.41641"
       style="fill:none;fill-rule:evenodd;stroke:#000000;stroke-width:10;stroke-linecap:round;stroke-linejoin:round;stroke-miterlimit:4;stroke-dasharray:none;stroke-opacity:1" />
    <path
       id="path4367"
       d="m 397.21515,945.4699 c 4.85719,22.05592 -0.10132,45.88889 -12.56431,64.7232 -12.46298,18.8342 -31.76731,31.8655 -51.0589,43.6082 l -39.54956,24.0736"
       style="fill:none;fill-rule:evenodd;stroke:#000000;stroke-width:10;stroke-linecap:round;stroke-linejoin:round;stroke-miterlimit:4;stroke-dasharray:none;stroke-opacity:1" />
    <path
       id="path4347"
       d="m 435.92333,528.98565 c 1.86195,12.92828 7.22415,25.33535 15.36443,35.5502 8.14027,10.21484 19.03752,18.211 31.22408,22.91153 12.18656,4.70053 25.63085,6.09325 38.52217,3.99059 12.89131,-2.10267 25.19625,-7.69527 35.25755,-16.02458 13.67198,-11.31844 23.0429,-27.71072 25.85929,-45.23493 2.81639,-17.52422 -0.94635,-36.02726 -10.38338,-51.05965"
       style="fill:none;fill-rule:evenodd;stroke:#000000;stroke-width:10;stroke-linecap:round;stroke-linejoin:round;stroke-miterlimit:4;stroke-dasharray:none;stroke-opacity:1" />
    <path
       id="rect4185"
       d="m 308.42275,51.028375 c 79.63627,-9.317414 149.84963,41.517439 149.0867,98.906185 -58.66293,234.72259 -21.87249,451.77819 68.90778,642.88903 5.46309,58.23517 -66.10344,117.55754 -147.12233,114.42655 C 305.31687,906.93026 300.76171,877.58111 250.87526,803.9374 189.45726,632.76842 136.1058,563.71767 194.39639,187.92951 190.54347,134.94101 234.59242,57.381586 308.42275,51.028375 Z"
       style="fill:#a02c2c;fill-opacity:1;stroke:#000000;stroke-width:6.43951225;stroke-linejoin:miter;stroke-miterlimit:4;stroke-dasharray:none" />
    <path
       id="rect4185-6"
       d="M 255.93229,-5.2022925 C 339.01676,-15.752883 412.27032,41.810073 411.47436,106.79435 350.27136,372.58304 388.65479,618.36643 483.3658,834.77124 489.06544,900.71397 414.40012,967.88782 329.87316,964.3424 252.69193,963.98023 247.93953,930.74664 195.89301,847.356 131.81565,653.5324 76.154098,575.34263 136.96864,149.81803 132.9489,89.816373 178.90514,1.9917926 255.93229,-5.2022925 Z"
       style="fill:url(#linearGradient4955);fill-opacity:1;stroke:#000000;stroke-width:6.43951273;stroke-linejoin:miter;stroke-miterlimit:4;stroke-dasharray:none" />
    <path
       style="fill:none;fill-rule:evenodd;stroke:#000000;stroke-width:10;stroke-linecap:round;stroke-linejoin:round;stroke-miterlimit:4;stroke-dasharray:none;stroke-opacity:1"
       d="m 175.35614,610.69867 c -6.0189,-11.59224 -15.17071,-21.53875 -26.22283,-28.49992 -11.05212,-6.96117 -23.97592,-10.91895 -37.03079,-11.34031 -13.054875,-0.42135 -26.206991,2.69481 -37.684997,8.9288 -11.478006,6.23399 -21.252157,15.56965 -28.006051,26.74964 -9.177652,15.19213 -12.622284,33.75703 -9.505555,51.23033 3.116729,17.4733 12.76759,33.70234 26.631808,44.78447"
       id="path5083" />
    <ellipse
       ry="91.928467"
       rx="52.54599"
       cy="511.02637"
       cx="416.8273"
       id="path3338"
       style="fill:none" />
    <ellipse
       ry="87.602211"
       rx="47.503731"
       cy="288.13266"
       cx="426.89435"
       id="path4160"
       style="fill:#ffffff;stroke:#000000;stroke-width:8;stroke-linejoin:miter;stroke-miterlimit:4;stroke-dasharray:none" />
    <path
       d="m 448.71795,291.1124 a 21.252188,43.387772 0 0 1 -19.38664,43.22028 21.252188,43.387772 0 0 1 -22.79022,-35.63241 21.252188,43.387772 0 0 1 15.38553,-49.47601 21.252188,43.387772 0 0 1 25.49134,26.94627 l -19.9522,14.94187 z"
       id="path4164-2"
       style="fill:#000000;stroke:#000000;stroke-width:6.52107382;stroke-linejoin:miter;stroke-miterlimit:4;stroke-dasharray:none" />
    <ellipse
       ry="89.517662"
       rx="49.009239"
       cy="300.9921"
       cx="308.02457"
       id="path4162"
       style="fill:#ffffff;stroke:#000000;stroke-width:6;stroke-miterlimit:4;stroke-dasharray:none" />
    <path
       d="m 328.00637,300.37668 a 22.935108,44.847618 0 0 1 -20.75613,44.64476 22.935108,44.847618 0 0 1 -24.70006,-36.16169 22.935108,44.847618 0 0 1 16.06281,-51.51594 22.935108,44.847618 0 0 1 27.75219,26.37301 l -21.29392,16.65986 z"
       id="path4164"
       style="fill:#000000;stroke:#000000;stroke-width:6.88737345;stroke-linejoin:miter;stroke-miterlimit:4;stroke-dasharray:none" />
    <ellipse
       cx="381.73923"
       cy="397.60599"
       rx="37.830013"
       ry="17.195461"
       id="path4232"
       style="fill:#ffd5d5;stroke:#000000;stroke-width:5;stroke-linejoin:miter;stroke-miterlimit:4;stroke-dasharray:none" />
    <path
       id="path4265"
       d="m 402.40588,461.12042 -141.94255,-11.8689 c -7.98969,18.26548 -8.31095,39.74487 -0.87109,58.24113 7.43986,18.49625 22.54482,33.77066 40.95693,41.41638 18.41212,7.64572 39.89376,7.56407 58.24722,-0.22138 18.35347,-7.78545 33.3419,-23.17423 40.64095,-41.7265 5.69696,-14.48017 6.75034,-30.74674 2.96854,-45.84073 z"
       style="fill:#ffffff;fill-rule:evenodd;stroke:#000000;stroke-width:4.78067207;stroke-linecap:butt;stroke-linejoin:miter;stroke-miterlimit:4;stroke-dasharray:none;stroke-opacity:1" />
    <path
       id="path4285"
       d="m 254.49282,468.10746 115.20959,10.31728 6.87818,-5.15864 5.15864,6.87818 20.63456,0"
       style="fill:none;fill-rule:evenodd;stroke:#000000;stroke-width:5;stroke-linecap:butt;stroke-linejoin:miter;stroke-miterlimit:4;stroke-dasharray:none;stroke-opacity:1" />
    <path
       id="path4323"
       d="m 338.15228,539.01842 c -16.10316,-16.54376 -44.21654,-27.56704 -65.20198,-25.56576 -6.6146,0.6308 -6.80458,0.48784 -10.37234,-7.80564 -2.02196,-4.70018 -4.05902,-14.06366 -4.5916,-21.10563 -0.87964,-11.63085 -0.69309,-12.65099 2.30013,-12.57817 1.79157,0.0436 27.24507,2.27045 56.56333,4.94859 36.88642,3.36947 54.3105,4.34418 56.56728,3.1644 2.46778,-1.29009 3.63921,-1.02977 4.8142,1.06981 1.17319,2.09638 4.20718,2.77477 12.4097,2.77477 l 10.85686,0 -1.62044,8.91545 c -3.59906,19.80163 -18.70262,40.34602 -36.59986,49.7844 -14.11966,7.44621 -14.41187,7.40432 -25.12528,-3.60222 z"
       style="fill:#000000;stroke:#000000;stroke-width:8.59773064;stroke-linejoin:miter;stroke-miterlimit:4;stroke-dasharray:none" />
    <path
       id="path4325"
       d="m 307.5898,546.08665 c -11.4657,-3.63565 -21.54675,-9.537 -30.33629,-17.75858 -4.59442,-4.29755 -8.3535,-8.48163 -8.3535,-9.29796 0,-2.07649 11.85245,-1.84953 22.69935,0.43467 13.53968,2.85125 26.71383,9.87323 37.41492,19.9426 l 9.52735,8.96492 -12.03682,-0.0523 c -6.62025,-0.0288 -15.13201,-1.03377 -18.91501,-2.23332 z"
       style="fill:#ffaaaa;stroke:#000000;stroke-width:8.59773064;stroke-linejoin:miter;stroke-miterlimit:4;stroke-dasharray:none" />
    <path
       id="path4327"
       d="m 380.3255,472.75992 c -2.80395,-4.27937 -2.80968,-4.28015 -7.40147,-1.01051 -4.68116,3.33328 -15.86128,2.67446 -113.43553,-6.68451 -1.02398,-0.0982 1.61725,-9.41179 3.10062,-10.93351 0.97259,-0.99773 135.04931,8.68082 137.00068,9.88963 0.11097,0.0688 0.72638,3.02673 1.36758,6.57329 l 1.1658,6.4483 -9.49578,0 c -8.22177,0 -9.87226,-0.57459 -12.3019,-4.28269 z"
       style="fill:#e6e6e6;stroke:#000000;stroke-width:8.59773064;stroke-linejoin:miter;stroke-miterlimit:4;stroke-dasharray:none" />
  </g>
</svg>
